<?xml version="1.0" standalone="no"?>
<!DOCTYPE svg PUBLIC "-//W3C//DTD SVG 20010904//EN"
 "http://www.w3.org/TR/2001/REC-SVG-20010904/DTD/svg10.dtd">
<svg version="1.0" xmlns="http://www.w3.org/2000/svg"
 width="512.000000pt" height="512.000000pt" viewBox="0 0 512.000000 512.000000"
 preserveAspectRatio="xMidYMid meet">
<metadata>
Created by potrace 1.11, written by Peter Selinger 2001-2013
</metadata>
<g transform="translate(0.000000,512.000000) scale(0.100000,-0.100000)"
fill="#000000" stroke="none">
<path d="M2156 4784 c-134 -32 -275 -143 -336 -265 -51 -100 -60 -165 -60
-436 l0 -243 243 -1 c133 0 250 -2 260 -4 34 -7 82 -42 106 -77 l23 -36 42 15
c54 21 197 22 253 1 l41 -15 24 35 c13 20 43 46 67 59 43 22 52 23 293 23
l248 0 0 243 c0 171 -5 262 -15 310 -40 190 -202 352 -392 392 -95 21 -711 19
-797 -1z m276 -240 c50 -26 178 -28 241 -4 36 14 77 20 130 20 90 0 95 -8 49
-81 -20 -31 -44 -52 -83 -71 -70 -35 -113 -43 -229 -42 -109 2 -189 26 -240
74 -28 26 -60 85 -60 110 0 17 156 12 192 -6z m-93 -325 c54 -40 128 -57 231
-54 107 3 151 14 204 50 31 21 49 25 111 25 83 0 86 -4 61 -63 -47 -112 -210
-180 -416 -173 -198 7 -340 86 -365 204 l-7 32 77 0 c61 0 81 -4 104 -21z"/>
<path d="M1547 4330 c-25 -22 -67 -68 -92 -102 -45 -60 -116 -198 -128 -248
-3 -14 -7 -29 -8 -35 -16 -67 -38 -102 -88 -136 -137 -95 -227 -226 -260 -379
-14 -64 -6 -216 14 -275 49 -144 160 -278 287 -349 66 -37 168 -70 239 -79 35
-4 37 -3 63 50 25 52 26 59 26 237 l0 183 -45 17 c-52 20 -90 61 -105 114 -7
23 -10 104 -8 213 3 174 3 176 31 219 21 30 43 48 78 63 l49 21 1 245 c0 136
2 254 4 264 5 26 -8 21 -58 -23z"/>
<path d="M3515 4353 c2 -10 4 -129 4 -265 l1 -246 34 -12 c50 -16 86 -48 107
-94 16 -35 19 -67 19 -216 0 -149 -3 -181 -19 -216 -20 -43 -60 -78 -111 -95
l-30 -11 0 -184 c0 -179 1 -185 27 -238 26 -54 28 -55 62 -50 65 9 175 45 236
77 76 41 192 154 236 232 19 33 34 62 35 65 0 3 3 12 6 20 23 60 30 95 33 170
5 102 -6 163 -42 250 -44 107 -118 195 -225 269 -55 39 -55 38 -101 184 -35
109 -100 217 -183 303 -71 74 -95 89 -89 57z"/>
<path d="M1604 3667 c-2 -7 -3 -78 -2 -157 l3 -145 315 0 315 0 0 155 0 155
-313 3 c-250 2 -314 0 -318 -11z"/>
<path d="M2884 3667 c-2 -7 -3 -78 -2 -157 l3 -145 315 0 315 0 0 155 0 155
-313 3 c-250 2 -314 0 -318 -11z"/>
<path d="M2460 3573 l-55 -29 -5 -110 c-5 -100 -8 -115 -33 -153 -50 -75 -73
-81 -359 -81 l-248 0 0 -110 c0 -60 2 -110 3 -110 2 0 17 7 33 15 87 43 108
44 784 42 633 -2 646 -2 695 -23 28 -12 58 -25 68 -29 16 -7 17 2 17 104 l0
111 -245 0 c-198 0 -253 3 -282 15 -86 36 -112 90 -113 227 l0 97 -47 28 c-70
41 -142 43 -213 6z"/>
<path d="M1900 2863 c-117 -41 -199 -140 -216 -259 l-6 -45 284 3 c275 3 284
4 332 27 96 48 168 144 181 245 l7 46 -269 0 c-217 -1 -277 -4 -313 -17z"/>
<path d="M2645 2833 c13 -99 79 -189 175 -239 l55 -29 283 -3 284 -3 -6 46
c-4 26 -11 54 -15 63 -5 9 -15 30 -22 47 -18 39 -91 111 -132 129 -71 32 -104
35 -363 36 l-266 1 7 -48z"/>
<path d="M2510 2557 c-53 -59 -112 -99 -189 -128 -66 -24 -106 -28 -313 -29
-107 0 -158 -4 -158 -11 0 -6 28 -39 63 -73 69 -69 178 -130 262 -145 28 -6
203 -10 390 -10 380 0 410 3 525 66 61 33 180 140 180 163 0 8 -277 17 -342
11 -33 -4 -140 29 -198 60 -53 28 -160 122 -160 141 0 17 -16 5 -60 -45z"/>
<path d="M2131 2001 c-5 -9 -14 -39 -21 -68 -11 -50 -8 -73 10 -73 4 0 105
-56 224 -124 l217 -125 232 134 c144 83 231 139 228 147 -2 7 -11 38 -20 69
l-16 55 -35 -7 c-49 -11 -727 -10 -773 0 -30 7 -39 6 -46 -8z"/>
<path d="M1910 1705 c-47 -24 -84 -47 -82 -51 1 -5 147 -154 325 -332 l322
-323 3 232 c2 205 0 234 -14 251 -10 10 -20 18 -23 18 -7 0 -386 215 -406 230
-26 19 -46 15 -125 -25z"/>
<path d="M3099 1736 c-105 -57 -437 -250 -447 -260 -9 -9 -12 -67 -10 -245 l3
-232 325 326 c179 179 327 327 329 330 1 2 -37 24 -86 49 -81 40 -92 43 -114
32z"/>
<path d="M1560 1560 c-98 -32 -204 -64 -208 -61 -1 1 -16 -6 -33 -14 -20 -11
-28 -21 -25 -33 4 -13 56 -270 111 -550 1 -9 10 -52 19 -94 12 -56 16 -133 16
-283 l0 -205 1120 0 1120 0 1 208 c0 114 2 214 4 222 1 8 5 29 8 45 3 17 21
109 41 205 19 96 38 186 40 200 3 14 16 81 30 150 14 68 24 125 23 126 -1 1
-56 18 -122 39 -66 20 -147 45 -179 56 -33 10 -61 18 -62 17 -2 -2 -199 -198
-438 -437 l-435 -434 -37 6 c-34 6 -86 54 -465 434 -236 235 -432 429 -436
430 -4 1 -46 -11 -93 -27z m1080 -1080 l0 -80 -80 0 -80 0 0 80 0 80 80 0 80
0 0 -80z"/>
<path d="M965 1376 c-181 -55 -215 -72 -233 -112 -9 -18 -12 -159 -12 -484 l0
-460 280 0 280 0 0 203 c0 137 -5 221 -14 262 -8 33 -16 74 -19 90 -6 38 -106
538 -110 546 -1 4 -78 -17 -172 -45z"/>
<path d="M3912 1073 l-72 -358 0 -198 0 -197 280 0 280 0 0 460 c0 329 -3 466
-12 485 -14 31 -56 58 -123 78 -27 9 -95 29 -150 46 -55 16 -107 32 -116 36
-13 5 -26 -48 -87 -352z"/>
</g>
</svg>
