<svg id="Solid_G" height="512" viewBox="0 0 512 512" width="512" xmlns="http://www.w3.org/2000/svg" xmlns:xlink="http://www.w3.org/1999/xlink" data-name="Solid G"><linearGradient id="linear-gradient" gradientUnits="userSpaceOnUse" x1="214.753" x2="214.753" y1="11.172" y2="502.329"><stop offset="0" stop-color="#ff91d2"/><stop offset=".262" stop-color="#f68bd9"/><stop offset=".688" stop-color="#de79ed"/><stop offset=".999" stop-color="#c86aff"/></linearGradient><linearGradient id="linear-gradient-2" x1="208" x2="208" xlink:href="#linear-gradient" y1="11.172" y2="502.329"/><linearGradient id="linear-gradient-3" x1="256" x2="256" xlink:href="#linear-gradient" y1="11.172" y2="502.329"/><linearGradient id="linear-gradient-5" x1="383.651" x2="383.651" xlink:href="#linear-gradient" y1="11.172" y2="502.329"/><linearGradient id="linear-gradient-7" x1="297.247" x2="297.247" xlink:href="#linear-gradient" y1="11.172" y2="502.329"/><linearGradient id="linear-gradient-8" x1="320" x2="320" xlink:href="#linear-gradient" y1="11.172" y2="502.329"/><linearGradient id="linear-gradient-10" x1="412" x2="412" xlink:href="#linear-gradient" y1="11.172" y2="502.329"/><linearGradient id="linear-gradient-11" x1="100" x2="100" xlink:href="#linear-gradient" y1="11.172" y2="502.329"/><linearGradient id="linear-gradient-12" x1="192" x2="192" xlink:href="#linear-gradient" y1="11.172" y2="502.329"/><linearGradient id="linear-gradient-14" x1="128.349" x2="128.349" xlink:href="#linear-gradient" y1="11.172" y2="502.329"/><linearGradient id="linear-gradient-15" x1="304" x2="304" xlink:href="#linear-gradient" y1="11.172" y2="502.329"/><g><path d="m248 364.643-48.252-27.573-18.243 9.122 66.495 66.495z" fill="url(#linear-gradient)"/><path d="m216 256a32.036 32.036 0 0 0 32-32h-48a32.036 32.036 0 0 0 -32 32z" fill="url(#linear-gradient-2)"/><path d="m302.584 324.167-3.933-13.767a67.806 67.806 0 0 1 -14.651 1.6h-56a67.806 67.806 0 0 1 -14.651-1.6l-3.933 13.767 46.584 26.619z" fill="url(#linear-gradient-3)"/><path d="m268.2 155.7a21.938 21.938 0 0 0 -24.406 0l-3.8 2.531v15.769a18.021 18.021 0 0 1 -18 18h-45.994v22.443a47.7 47.7 0 0 1 24-6.443h112a47.7 47.7 0 0 1 24 6.443v-22.443h-46a18.021 18.021 0 0 1 -18-18v-15.774z" fill="url(#linear-gradient-3)"/><path d="m352 128.111a18.026 18.026 0 0 1 16 17.889v28a18.026 18.026 0 0 1 -16 17.889v37.6a47.909 47.909 0 0 1 5.188 10.311c32.873-2.479 58.812-28.353 58.812-59.8 0-20.89-11.319-39.957-30.278-51a8 8 0 0 1 -3.8-5.27c-4.413-21.041-15.473-38.833-30.617-49.481a68.232 68.232 0 0 1 .695 9.751z" fill="url(#linear-gradient-5)"/><path d="m216 272h-31.831a52.123 52.123 0 0 0 43.831 24h56a52.126 52.126 0 0 0 43.831-24h-31.831a48 48 0 0 1 -40-21.494 48 48 0 0 1 -40 21.494z" fill="url(#linear-gradient-3)"/><path d="m312.252 337.07-48.252 27.573v48.044l66.495-66.495z" fill="url(#linear-gradient-7)"/><rect fill="url(#linear-gradient-8)" height="32" rx="2" width="64" x="288" y="144"/><path d="m261.657 437.657a8 8 0 0 1 -11.314 0l-84.594-84.595-36.718 11.3 14.814 74.071a8.026 8.026 0 0 1 .155 1.567v40h224v-40a8.026 8.026 0 0 1 .155-1.569l14.814-74.071-36.718-11.3zm2.343 34.343h-16v-16h16z" fill="url(#linear-gradient-3)"/><path d="m431.529 379.3-33.188-10.21-14.341 71.702v39.208h56v-89.229a11.939 11.939 0 0 0 -8.471-11.471z" fill="url(#linear-gradient-10)"/><path d="m80.471 379.3a11.939 11.939 0 0 0 -8.471 11.471v89.229h56v-39.208l-14.341-71.7z" fill="url(#linear-gradient-11)"/><rect fill="url(#linear-gradient-12)" height="32" rx="2" width="64" x="160" y="144"/><path d="m238.979 140.021a37.861 37.861 0 0 1 34.042 0 18.031 18.031 0 0 1 16.979-12.021h46v-44a52.059 52.059 0 0 0 -52-52h-56a52.059 52.059 0 0 0 -52 52v44h46a18.031 18.031 0 0 1 16.979 12.021zm1.021-84.021a1.534 1.534 0 0 0 -.134-.666c.769 1.373 6.502 4.666 16.134 4.666s15.365-3.293 16.134-4.666a1.534 1.534 0 0 0 -.134.666h16c0 11.589-13.458 20-32 20s-32-8.411-32-20zm-24 32h16c0 1.583 7.719 8 24 8s24-6.417 24-8h16c0 13.682-17.2 24-40 24s-40-10.318-40-24z" fill="url(#linear-gradient-3)"/><path d="m154.812 239.805a47.909 47.909 0 0 1 5.188-10.311v-37.6a18.026 18.026 0 0 1 -16-17.894v-28a18.026 18.026 0 0 1 16-17.889v-44.111a68.232 68.232 0 0 1 .7-9.754c-15.144 10.648-26.2 28.44-30.617 49.481a8 8 0 0 1 -3.8 5.27c-18.964 11.046-30.283 30.113-30.283 51.003 0 31.447 25.939 57.321 58.812 59.805z" fill="url(#linear-gradient-14)"/><path d="m312 224h-48a32.036 32.036 0 0 0 32 32h48a32.036 32.036 0 0 0 -32-32z" fill="url(#linear-gradient-15)"/></g></svg>